<svg width="11" height="7" viewBox="0 0 11 7" fill="none" xmlns="http://www.w3.org/2000/svg">
<path d="M4.33228 5.737L0.279297 1.646C0.100299 1.46433 0 1.21951 0 0.964478C0 0.709442 0.100299 0.464626 0.279297 0.282959C0.367595 0.193342 0.472815 0.122184 0.588867 0.0736084C0.70492 0.0250332 0.829514 0 0.955322 0C1.08113 0 1.20572 0.0250332 1.32178 0.0736084C1.43783 0.122184 1.54305 0.193342 1.63135 0.282959L5.00732 3.69196L8.38538 0.282959C8.47359 0.193372 8.57873 0.122232 8.6947 0.0736694C8.81067 0.0251072 8.93506 0.00012207 9.06079 0.00012207C9.18652 0.00012207 9.31103 0.0251072 9.427 0.0736694C9.54297 0.122232 9.64812 0.193372 9.73633 0.282959C9.91533 0.464626 10.0156 0.709442 10.0156 0.964478C10.0156 1.21951 9.91533 1.46433 9.73633 1.646L5.68237 5.737C5.59402 5.82634 5.48875 5.89727 5.3728 5.94568C5.25685 5.99409 5.13249 6.01898 5.00684 6.01898C4.88119 6.01898 4.75682 5.99409 4.64087 5.94568C4.52492 5.89727 4.41965 5.82634 4.3313 5.737H4.33228Z" fill="#677585"/>
</svg>
