<svg width="18" height="18" viewBox="0 0 18 18" fill="none" xmlns="http://www.w3.org/2000/svg">
<path d="M8.38901 17.7101C8.30283 17.6378 8.23183 17.5492 8.18011 17.4493C8.1284 17.3493 8.09697 17.2401 8.08768 17.128C8.07838 17.0158 8.09139 16.903 8.12595 16.7959C8.1605 16.6889 8.21592 16.5897 8.289 16.5042L14.937 9.94718H0.949005C0.697223 9.94692 0.455836 9.84675 0.277893 9.66862C0.0999497 9.49049 -1.39492e-07 9.24901 0 8.99723V8.98722C-1.39492e-07 8.73544 0.0999497 8.49384 0.277893 8.31571C0.455836 8.13758 0.697223 8.03741 0.949005 8.03715H14.874L8.297 1.55216C8.22157 1.46406 8.16429 1.36194 8.12848 1.25163C8.09267 1.14131 8.07902 1.02495 8.08832 0.909341C8.09761 0.793733 8.12967 0.681097 8.18265 0.57792C8.23562 0.474743 8.30847 0.383071 8.397 0.308145C8.55305 0.130985 8.77188 0.0215104 9.00723 0.00284674C9.24258 -0.0158169 9.47597 0.0578194 9.65799 0.208169L17.779 8.21623C17.9297 8.39211 18.0048 8.62047 17.9877 8.85148C17.9707 9.08249 17.8629 9.29729 17.688 9.44914C17.7009 9.55648 17.6897 9.66543 17.6551 9.76786C17.6205 9.87029 17.5634 9.96366 17.488 10.0412L9.61398 17.8052C9.47335 17.9384 9.28561 18.0103 9.09198 18.0052C8.82811 18.0024 8.5758 17.8965 8.38901 17.7101Z" fill="#D0AD37"/>
</svg>
