<svg width="18" height="18" viewBox="0 0 18 18" fill="none" xmlns="http://www.w3.org/2000/svg">
<path d="M17.993 1.81799L15.655 8.43799H15.578C15.4929 8.60481 15.3644 8.74563 15.2061 8.84558C15.0477 8.94554 14.8653 9.00092 14.6781 9.00598H7.36609L7.646 10.13H14.619C14.9174 10.13 15.2036 10.2486 15.4146 10.4595C15.6255 10.6705 15.744 10.9566 15.744 11.255C15.744 11.5534 15.6255 11.8395 15.4146 12.0505C15.2036 12.2615 14.9174 12.38 14.619 12.38H6.74902C6.45083 12.3797 6.16499 12.2611 5.95422 12.0502C5.74346 11.8392 5.625 11.5532 5.625 11.255C5.6318 11.192 5.64417 11.1298 5.66199 11.069L3.46204 2.255H2.81104V2.08301C2.64296 2.19067 2.44856 2.25016 2.24902 2.255H1.125C0.826631 2.255 0.540568 2.13645 0.32959 1.92548C0.118611 1.7145 0 1.42837 0 1.13C0 0.831636 0.118611 0.545512 0.32959 0.334534C0.540568 0.123555 0.826631 0.00500488 1.125 0.00500488H2.24902C2.44868 0.00999547 2.64313 0.0698219 2.81104 0.177979V0H16.865C17.1632 0.000265063 17.4492 0.118884 17.6599 0.329834C17.8707 0.540784 17.989 0.826805 17.989 1.125C17.9842 1.37236 17.8961 1.61087 17.739 1.802L17.993 1.81799ZM5.67908 2.25L6.80103 6.75H14.0341L15.623 2.25H5.67908ZM7.30701 14.625C7.64095 14.6246 7.96751 14.7233 8.24536 14.9085C8.52321 15.0937 8.73985 15.3572 8.86792 15.6656C8.99599 15.9741 9.02975 16.3135 8.96484 16.6411C8.89994 16.9687 8.73929 17.2696 8.5033 17.5059C8.2673 17.7421 7.96653 17.9032 7.63904 17.9684C7.31154 18.0337 6.97213 18.0004 6.66357 17.8727C6.35502 17.745 6.09121 17.5287 5.90564 17.251C5.72007 16.9734 5.62109 16.6469 5.62109 16.313C5.62096 16.0914 5.66437 15.8721 5.74902 15.6674C5.83368 15.4626 5.95794 15.2766 6.1145 15.1198C6.27106 14.9631 6.45687 14.8387 6.6615 14.7538C6.86613 14.6689 7.08547 14.6251 7.30701 14.625ZM14.0531 14.625C14.387 14.6246 14.7135 14.7233 14.9913 14.9085C15.2692 15.0937 15.4859 15.3572 15.614 15.6656C15.7421 15.9741 15.7757 16.3135 15.7108 16.6411C15.6459 16.9687 15.4854 17.2696 15.2494 17.5059C15.0134 17.7421 14.7126 17.9032 14.3851 17.9684C14.0576 18.0337 13.7181 18.0004 13.4095 17.8727C13.101 17.745 12.8372 17.5287 12.6516 17.251C12.466 16.9734 12.3671 16.6469 12.3671 16.313C12.3669 16.0914 12.4105 15.8721 12.4951 15.6674C12.5798 15.4626 12.7039 15.2766 12.8605 15.1198C13.017 14.9631 13.2028 14.8387 13.4075 14.7538C13.6121 14.6689 13.8316 14.6251 14.0531 14.625Z" fill="#11293B"/>
</svg>
