<svg width="58" height="58" viewBox="0 0 58 58" fill="none" xmlns="http://www.w3.org/2000/svg">
<g filter="url(#filter0_d_1_169)">
<path d="M29 33C36.732 33 43 26.732 43 19C43 11.268 36.732 5 29 5C21.268 5 15 11.268 15 19C15 26.732 21.268 33 29 33Z" fill="#F67280"/>
</g>
<path d="M30.8612 17.2303C30.8612 16.8866 30.8065 16.5871 30.6971 16.3319C30.593 16.0767 30.4471 15.8658 30.2596 15.6991C30.0774 15.5272 29.8612 15.3996 29.6112 15.3163C29.3612 15.233 29.0904 15.1913 28.7987 15.1913C28.5487 15.1913 28.3039 15.2251 28.0643 15.2928C27.8247 15.3606 27.5904 15.4543 27.3612 15.5741C27.1372 15.6939 26.9185 15.8371 26.705 16.0038C26.4966 16.1705 26.3013 16.3553 26.119 16.5585V15.1835C26.4784 14.8345 26.8794 14.5689 27.3221 14.3866C27.7701 14.1991 28.3143 14.1053 28.955 14.1053C29.4133 14.1053 29.8378 14.1731 30.2284 14.3085C30.619 14.4387 30.9576 14.6314 31.244 14.8866C31.5305 15.1418 31.7544 15.4569 31.9159 15.8319C32.0826 16.2069 32.1659 16.6366 32.1659 17.121C32.1659 17.5637 32.1138 17.9647 32.0096 18.3241C31.9107 18.6835 31.757 19.022 31.5487 19.3397C31.3456 19.6574 31.0878 19.9621 30.7753 20.2538C30.4628 20.5455 30.0956 20.8423 29.6737 21.1444C29.1477 21.5194 28.7128 21.8397 28.369 22.1053C28.0305 22.371 27.7596 22.621 27.5565 22.8553C27.3586 23.0845 27.218 23.3163 27.1346 23.5507C27.0565 23.7798 27.0175 24.0455 27.0175 24.3475H32.5956V25.496H25.6815V24.9413C25.6815 24.4621 25.7336 24.0402 25.8378 23.6757C25.9419 23.3111 26.1138 22.9647 26.3534 22.6366C26.593 22.3085 26.9055 21.9803 27.2909 21.6522C27.6815 21.3241 28.1581 20.9543 28.7206 20.5428C29.1268 20.2512 29.4654 19.9725 29.7362 19.7069C30.0122 19.4413 30.2336 19.1757 30.4003 18.91C30.5669 18.6444 30.6841 18.3762 30.7518 18.1053C30.8247 17.8293 30.8612 17.5376 30.8612 17.2303Z" fill="white"/>
<defs>
<filter id="filter0_d_1_169" x="0" y="0" width="58" height="58" filterUnits="userSpaceOnUse" color-interpolation-filters="sRGB">
<feFlood flood-opacity="0" result="BackgroundImageFix"/>
<feColorMatrix in="SourceAlpha" type="matrix" values="0 0 0 0 0 0 0 0 0 0 0 0 0 0 0 0 0 0 127 0" result="hardAlpha"/>
<feOffset dy="10"/>
<feGaussianBlur stdDeviation="7.5"/>
<feColorMatrix type="matrix" values="0 0 0 0 0.592157 0 0 0 0 0.113725 0 0 0 0 0.164706 0 0 0 0.251 0"/>
<feBlend mode="normal" in2="BackgroundImageFix" result="effect1_dropShadow_1_169"/>
<feBlend mode="normal" in="SourceGraphic" in2="effect1_dropShadow_1_169" result="shape"/>
</filter>
</defs>
</svg>
