<svg width="18" height="18" viewBox="0 0 18 18" fill="none" xmlns="http://www.w3.org/2000/svg">
<path d="M9.00006 18.0019C18.0001 13.0929 18.0001 6.54791 18.0001 6.54791C18.0001 4.91191 18.0001 0.820864 13.5001 0.00286354C9.00006 -0.112136 9.00006 3.2749 9.00006 3.2749C9.00006 3.2749 9.00006 0.00286354 4.50006 0.00286354C5.81741e-05 0.820864 5.83147e-05 4.91191 5.83147e-05 6.54791C-0.00194169 6.54791 -0.00194168 13.0929 9.00006 18.0019ZM5.80011 2.30187C6.43618 2.5058 7.01768 2.85146 7.50079 3.31274C7.9839 3.77402 8.35596 4.33892 8.58905 4.9649C8.84005 5.0199 9.00006 5.06488 9.00006 5.06488L8.67999 5.17089C8.84499 5.54789 8.93 5.78288 8.966 5.70288V5.37188C8.96556 5.44859 8.97164 5.52519 8.98407 5.60089C8.98407 5.54189 8.99102 5.46589 8.99102 5.35589V5.62689C9.12103 6.07089 9.83006 2.87987 12.2031 2.30487C16.3601 1.76787 15.803 5.62189 15.647 7.29089C15.664 7.39689 15.376 11.7669 9.00103 15.1399V15.1889C2.75103 11.8249 2.36302 7.39787 2.35602 7.28887V7.27789L2.25103 7.31286C2.2541 7.13148 2.2735 6.95077 2.30902 6.77288C2.13802 4.94488 2.02501 1.81587 5.79901 2.30187H5.80011Z" fill="#11293B"/>
</svg>
