<svg width="18" height="19" viewBox="0 0 18 19" fill="none" xmlns="http://www.w3.org/2000/svg">
<path d="M15.7391 18.0621H2.24812C1.85416 18.0616 1.46722 17.9577 1.12599 17.7608C0.784758 17.5639 0.501193 17.2809 0.303601 16.9401C0.106009 16.5992 0.00132424 16.2125 1.24851e-05 15.8185C-0.00129927 15.4246 0.100776 15.0372 0.296094 14.6951C0.110462 14.3461 0.012009 13.9574 0.00910672 13.5621C0.00910672 11.7861 2.10911 10.1711 5.35011 9.44806C4.79523 8.68324 4.49761 7.76198 4.50013 6.81708V4.56207C4.49125 3.96621 4.60089 3.3745 4.82277 2.82141C5.04465 2.26832 5.37432 1.76491 5.79255 1.34039C6.21079 0.915873 6.70927 0.578738 7.25898 0.348633C7.8087 0.118527 8.39865 0 8.99458 0C9.59051 0 10.1805 0.118527 10.7302 0.348633C11.28 0.578738 11.7785 0.915873 12.1967 1.34039C12.615 1.76491 12.9446 2.26832 13.1665 2.82141C13.3883 3.3745 13.498 3.96621 13.4891 4.56207V6.82208C13.4913 7.76617 13.1941 8.6866 12.6401 9.45105C15.8891 10.172 17.9891 11.7881 17.9891 13.5671C17.9857 13.9655 17.8855 14.357 17.6971 14.7081C17.8906 15.0504 17.9911 15.4374 17.9886 15.8306C17.9861 16.2238 17.8806 16.6095 17.6827 16.9492C17.4847 17.289 17.2012 17.571 16.8604 17.7671C16.5196 17.9632 16.1333 18.0667 15.7401 18.0671L15.7391 18.0621ZM8.99812 11.3121C5.27612 11.3121 2.24812 12.3211 2.24812 13.5621V15.8121H15.7371V13.6901C15.7444 13.6478 15.7481 13.605 15.7481 13.5621C15.7481 12.3211 12.7201 11.3121 8.99812 11.3121ZM8.99812 2.31207C8.40163 2.31287 7.82976 2.5502 7.40797 2.97198C6.98619 3.39377 6.74891 3.96558 6.74812 4.56207V6.81207C6.74812 7.40881 6.98516 7.98112 7.40712 8.40308C7.82907 8.82503 8.40138 9.06207 8.99812 9.06207C9.59486 9.06207 10.1672 8.82503 10.5891 8.40308C11.0111 7.98112 11.2481 7.40881 11.2481 6.81207V4.56207C11.2473 3.96558 11.01 3.39377 10.5882 2.97198C10.1664 2.5502 9.59461 2.31287 8.99812 2.31207Z" fill="#11293B"/>
</svg>
